<svg id="Layer_1" data-name="Layer 1" xmlns="http://www.w3.org/2000/svg" width="118.27mm" height="25.78mm" viewBox="0 0 335.25 73.07"><defs><style>.cls-1{fill:#2faae1;}</style></defs><title>acquia-vector-logo</title><path class="cls-1" d="M362.56,424.74c-16,0-27.59-12.91-27.59-30.73V364.79h11.67V394c0,12.07,6.15,19.55,16,19.55s16-7.48,16-19.55l0-29.27h11.73V394c.05,17.82-11.62,30.73-27.77,30.73m38.66-59.95H412.9v58.27H401.22ZM244.07,414.23A19.72,19.72,0,1,1,257.43,380,39.67,39.67,0,0,1,263,370.1a30.9,30.9,0,1,0-18.94,55.31A31,31,0,0,0,263,418.93a41.16,41.16,0,0,1-5.58-9.95,19.71,19.71,0,0,1-13.36,5.25m207-41.06A16.93,16.93,0,0,0,438,379.09a21.52,21.52,0,0,0-5.14,14.59c0,6.08,1.67,11.17,5,15a16.63,16.63,0,0,0,13.07,6,17.28,17.28,0,0,0,13.52-5.81c3.41-3.91,5.14-8.94,5.14-14.92s-1.73-11-5.14-14.91a16.82,16.82,0,0,0-13.35-5.87Zm-2.24,51.45A25.82,25.82,0,0,1,429,416c-5.2-5.93-7.82-13.41-7.82-22.35,0-8.72,2.62-16.09,7.82-21.9a25.18,25.18,0,0,1,19.49-8.66c6.65,0,12.74,2.79,18.1,8.32l2.24,2.3v-8.94h11.51v58.15H468.82v-8l-2.18,2c-5.53,5.19-11.51,7.76-17.77,7.76Zm-152-61h-.17c-.56-.06-.73.22-.5.61a.25.25,0,0,0,.11.17c1.06,2.29,3.91,7.93,8.77,11.79,6.31,5,10.17,10.89,10.17,18.27,0,9.38-7.38,19.66-19.39,19.66s-19.38-10.28-19.38-19.66c0-7.38,3.85-13.3,10.16-18.27a32.13,32.13,0,0,0,8.83-11.9c.22-.45.11-.73-.39-.73H295a31,31,0,0,0-30.28,30.9c0,13.8,11.67,29.83,30.56,29.83s31.34-12.85,31.34-29.83a30.79,30.79,0,0,0-29.72-30.84" transform="translate(-145.08 -352.33)"/><path class="cls-1" d="M318.6,403.79l-8,8.43L322,423h16.93L318.6,403.79m-152-1.34,13.63-30.17,13.63,30.17Zm36.53,20.61H215.3l-30.61-67.82a4.93,4.93,0,0,0-4.47-2.91,4.87,4.87,0,0,0-4.47,2.91l-30.67,67.82h12.18l4.41-9.72h37C198.71,413.4,203.12,423.06,203.12,423.06Z" transform="translate(-145.08 -352.33)"/></svg>